<svg xmlns="http://www.w3.org/2000/svg" viewBox="0 0 900 660" role="img" aria-labelledby="title desc">
  <title id="title">Premium cinema camera on tripod</title>
  <desc id="desc">A stylized high-end cinema camera with a glossy lens mounted on a tripod.</desc>
  <defs>
    <linearGradient id="body" x1="0" x2="1" y1="0" y2="1">
      <stop stop-color="#3a3630"/>
      <stop offset="0.55" stop-color="#171411"/>
      <stop offset="1" stop-color="#465b52"/>
    </linearGradient>
    <linearGradient id="gold" x1="0" x2="1" y1="0" y2="1">
      <stop stop-color="#fff3c8"/>
      <stop offset="0.45" stop-color="#c5a46d"/>
      <stop offset="1" stop-color="#7c463b"/>
    </linearGradient>
    <radialGradient id="lens" cx="44%" cy="40%" r="65%">
      <stop stop-color="#fffaf3"/>
      <stop offset="0.16" stop-color="#d8bb77"/>
      <stop offset="0.44" stop-color="#38251b"/>
      <stop offset="0.72" stop-color="#090807"/>
      <stop offset="1" stop-color="#000000"/>
    </radialGradient>
    <filter id="shadow" x="-20%" y="-20%" width="140%" height="150%">
      <feDropShadow dx="0" dy="34" stdDeviation="24" flood-color="#171411" flood-opacity=".32"/>
    </filter>
  </defs>
  <ellipse cx="460" cy="570" rx="250" ry="34" fill="#171411" opacity=".16"/>
  <g filter="url(#shadow)">
    <path d="M450 292h44l20 290h-44z" fill="#161412"/>
    <path d="M455 302 286 610h43l159-304z" fill="#24211d"/>
    <path d="M500 302 674 610h-45L476 306z" fill="#24211d"/>
    <path d="M336 604h360v32H336z" fill="#171411" opacity=".82"/>
    <rect x="310" y="132" width="350" height="184" rx="34" fill="url(#body)"/>
    <rect x="650" y="178" width="76" height="92" rx="18" fill="#171411"/>
    <rect x="398" y="78" width="162" height="62" rx="22" fill="#24211d"/>
    <path d="M437 78h82l-22-34h-38z" fill="#171411"/>
    <rect x="560" y="108" width="112" height="38" rx="16" fill="#2b2926"/>
    <g transform="translate(190 130)">
      <ellipse cx="146" cy="95" rx="132" ry="126" fill="#171411"/>
      <ellipse cx="146" cy="95" rx="104" ry="96" fill="#27231f"/>
      <ellipse cx="146" cy="95" rx="76" ry="70" fill="url(#lens)"/>
      <circle cx="116" cy="64" r="18" fill="#fffaf3" opacity=".72"/>
      <path d="M80 124c44 35 105 34 146-8" fill="none" stroke="url(#gold)" stroke-width="9" opacity=".6"/>
    </g>
    <g opacity=".58" stroke="#fffaf3" stroke-width="2">
      <path d="M376 168h220"/>
      <path d="M376 204h220"/>
      <path d="M376 240h158"/>
    </g>
    <circle cx="618" cy="276" r="17" fill="url(#gold)"/>
    <path d="M692 255c62 10 93 34 112 75" fill="none" stroke="#171411" stroke-width="18" stroke-linecap="round"/>
  </g>
</svg>
